G04 EAGLE Gerber RS-274X export*
G75*
%MOMM*%
%FSLAX34Y34*%
%LPD*%
%INSoldermask Top*%
%IPPOS*%
%AMOC8*
5,1,8,0,0,1.08239X$1,22.5*%
G01*
%ADD10C,1.727200*%
%ADD11P,1.869504X8X292.500000*%
%ADD12C,1.711200*%
%ADD13C,1.993900*%
%ADD14P,1.951982X8X292.500000*%
%ADD15C,1.803400*%
%ADD16P,1.869504X8X22.500000*%
%ADD17C,1.727200*%
%ADD18P,1.869504X8X112.500000*%
%ADD19P,1.649562X8X202.500000*%
%ADD20P,1.649562X8X112.500000*%
%ADD21C,1.524000*%
%ADD22P,1.649562X8X22.500000*%
%ADD23R,1.803200X2.203200*%
%ADD24C,1.059600*%
%ADD25C,0.959600*%


D10*
X577850Y90170D02*
X577850Y74930D01*
X552450Y74930D02*
X552450Y90170D01*
X527050Y90170D02*
X527050Y74930D01*
X501650Y74930D02*
X501650Y90170D01*
X476250Y90170D02*
X476250Y74930D01*
X450850Y74930D02*
X450850Y90170D01*
X425450Y90170D02*
X425450Y74930D01*
X400050Y74930D02*
X400050Y90170D01*
X812800Y90170D02*
X812800Y74930D01*
X787400Y74930D02*
X787400Y90170D01*
X762000Y90170D02*
X762000Y74930D01*
X736600Y74930D02*
X736600Y90170D01*
X711200Y90170D02*
X711200Y74930D01*
X685800Y74930D02*
X685800Y90170D01*
X660400Y90170D02*
X660400Y74930D01*
X635000Y74930D02*
X635000Y90170D01*
X1035050Y90170D02*
X1035050Y74930D01*
X1009650Y74930D02*
X1009650Y90170D01*
X984250Y90170D02*
X984250Y74930D01*
X958850Y74930D02*
X958850Y90170D01*
X933450Y90170D02*
X933450Y74930D01*
X908050Y74930D02*
X908050Y90170D01*
X882650Y90170D02*
X882650Y74930D01*
X857250Y74930D02*
X857250Y90170D01*
X984250Y557530D02*
X984250Y572770D01*
X958850Y572770D02*
X958850Y557530D01*
X933450Y557530D02*
X933450Y572770D01*
X908050Y572770D02*
X908050Y557530D01*
X882650Y557530D02*
X882650Y572770D01*
X857250Y572770D02*
X857250Y557530D01*
X831850Y557530D02*
X831850Y572770D01*
X806450Y572770D02*
X806450Y557530D01*
X755650Y557530D02*
X755650Y572770D01*
X730250Y572770D02*
X730250Y557530D01*
X704850Y557530D02*
X704850Y572770D01*
X679450Y572770D02*
X679450Y557530D01*
X654050Y557530D02*
X654050Y572770D01*
X628650Y572770D02*
X628650Y557530D01*
X603250Y557530D02*
X603250Y572770D01*
X577850Y572770D02*
X577850Y557530D01*
X539750Y557530D02*
X539750Y572770D01*
X514350Y572770D02*
X514350Y557530D01*
X488950Y557530D02*
X488950Y572770D01*
X463550Y572770D02*
X463550Y557530D01*
X438150Y557530D02*
X438150Y572770D01*
X412750Y572770D02*
X412750Y557530D01*
X387350Y557530D02*
X387350Y572770D01*
X361950Y572770D02*
X361950Y557530D01*
X336550Y557530D02*
X336550Y572770D01*
X311150Y572770D02*
X311150Y557530D01*
D11*
X1060450Y565150D03*
X1060450Y539750D03*
X1060450Y514350D03*
X1060450Y488950D03*
X1060450Y463550D03*
X1060450Y438150D03*
X1085850Y565150D03*
X1085850Y539750D03*
X1085850Y514350D03*
X1085850Y488950D03*
X1085850Y463550D03*
X1085850Y438150D03*
X1060450Y412750D03*
X1085850Y412750D03*
X1060450Y387350D03*
X1060450Y361950D03*
X1060450Y336550D03*
X1060450Y311150D03*
X1060450Y285750D03*
X1060450Y260350D03*
X1085850Y387350D03*
X1085850Y361950D03*
X1085850Y336550D03*
X1085850Y311150D03*
X1085850Y285750D03*
X1085850Y260350D03*
X1060450Y234950D03*
X1085850Y234950D03*
X1060450Y209550D03*
X1060450Y184150D03*
X1060450Y158750D03*
X1085850Y209550D03*
X1085850Y184150D03*
X1085850Y158750D03*
X1060450Y133350D03*
X1085850Y133350D03*
D10*
X577850Y39370D02*
X577850Y24130D01*
X552450Y24130D02*
X552450Y39370D01*
X527050Y39370D02*
X527050Y24130D01*
X501650Y24130D02*
X501650Y39370D01*
X476250Y39370D02*
X476250Y24130D01*
X450850Y24130D02*
X450850Y39370D01*
X425450Y39370D02*
X425450Y24130D01*
X400050Y24130D02*
X400050Y39370D01*
X812800Y39370D02*
X812800Y24130D01*
X787400Y24130D02*
X787400Y39370D01*
X762000Y39370D02*
X762000Y24130D01*
X736600Y24130D02*
X736600Y39370D01*
X711200Y39370D02*
X711200Y24130D01*
X685800Y24130D02*
X685800Y39370D01*
X660400Y39370D02*
X660400Y24130D01*
X635000Y24130D02*
X635000Y39370D01*
X1035050Y39370D02*
X1035050Y24130D01*
X1009650Y24130D02*
X1009650Y39370D01*
X984250Y39370D02*
X984250Y24130D01*
X958850Y24130D02*
X958850Y39370D01*
X933450Y39370D02*
X933450Y24130D01*
X908050Y24130D02*
X908050Y39370D01*
X882650Y39370D02*
X882650Y24130D01*
X857250Y24130D02*
X857250Y39370D01*
X984250Y608330D02*
X984250Y623570D01*
X958850Y623570D02*
X958850Y608330D01*
X933450Y608330D02*
X933450Y623570D01*
X908050Y623570D02*
X908050Y608330D01*
X882650Y608330D02*
X882650Y623570D01*
X857250Y623570D02*
X857250Y608330D01*
X831850Y608330D02*
X831850Y623570D01*
X806450Y623570D02*
X806450Y608330D01*
X755650Y608330D02*
X755650Y623570D01*
X730250Y623570D02*
X730250Y608330D01*
X704850Y608330D02*
X704850Y623570D01*
X679450Y623570D02*
X679450Y608330D01*
X654050Y608330D02*
X654050Y623570D01*
X628650Y623570D02*
X628650Y608330D01*
X603250Y608330D02*
X603250Y623570D01*
X577850Y623570D02*
X577850Y608330D01*
X539750Y608330D02*
X539750Y623570D01*
X514350Y623570D02*
X514350Y608330D01*
X488950Y608330D02*
X488950Y623570D01*
X463550Y623570D02*
X463550Y608330D01*
X438150Y608330D02*
X438150Y623570D01*
X412750Y623570D02*
X412750Y608330D01*
X387350Y608330D02*
X387350Y623570D01*
X361950Y623570D02*
X361950Y608330D01*
X336550Y608330D02*
X336550Y623570D01*
X311150Y623570D02*
X311150Y608330D01*
D11*
X1136650Y565150D03*
X1136650Y539750D03*
X1136650Y514350D03*
X1136650Y488950D03*
X1136650Y463550D03*
X1136650Y438150D03*
X1162050Y565150D03*
X1162050Y539750D03*
X1162050Y514350D03*
X1162050Y488950D03*
X1162050Y463550D03*
X1162050Y438150D03*
X1136650Y412750D03*
X1162050Y412750D03*
X1136650Y387350D03*
X1136650Y361950D03*
X1136650Y336550D03*
X1136650Y311150D03*
X1136650Y285750D03*
X1136650Y260350D03*
X1162050Y387350D03*
X1162050Y361950D03*
X1162050Y336550D03*
X1162050Y311150D03*
X1162050Y285750D03*
X1162050Y260350D03*
X1136650Y234950D03*
X1162050Y234950D03*
X1136650Y209550D03*
X1136650Y184150D03*
X1136650Y158750D03*
X1162050Y209550D03*
X1162050Y184150D03*
X1162050Y158750D03*
X1136650Y133350D03*
X1162050Y133350D03*
D12*
X661590Y260350D02*
X646510Y260350D01*
X646510Y285750D02*
X661590Y285750D01*
X661590Y311150D02*
X646510Y311150D01*
X585390Y260350D02*
X570310Y260350D01*
X570310Y285750D02*
X585390Y285750D01*
X585390Y311150D02*
X570310Y311150D01*
X798910Y260350D02*
X813990Y260350D01*
X813990Y285750D02*
X798910Y285750D01*
X798910Y311150D02*
X813990Y311150D01*
X737790Y260350D02*
X722710Y260350D01*
X722710Y285750D02*
X737790Y285750D01*
X737790Y311150D02*
X722710Y311150D01*
X951310Y260350D02*
X966390Y260350D01*
X966390Y285750D02*
X951310Y285750D01*
X951310Y311150D02*
X966390Y311150D01*
X890190Y260350D02*
X875110Y260350D01*
X875110Y285750D02*
X890190Y285750D01*
X890190Y311150D02*
X875110Y311150D01*
X925910Y438150D02*
X940990Y438150D01*
X940990Y463550D02*
X925910Y463550D01*
X925910Y488950D02*
X940990Y488950D01*
X940990Y514350D02*
X925910Y514350D01*
X864790Y438150D02*
X849710Y438150D01*
X849710Y463550D02*
X864790Y463550D01*
X864790Y488950D02*
X849710Y488950D01*
X849710Y514350D02*
X864790Y514350D01*
X788590Y438150D02*
X773510Y438150D01*
X773510Y463550D02*
X788590Y463550D01*
X788590Y488950D02*
X773510Y488950D01*
X773510Y514350D02*
X788590Y514350D01*
X712390Y438150D02*
X697310Y438150D01*
X697310Y463550D02*
X712390Y463550D01*
X712390Y488950D02*
X697310Y488950D01*
X697310Y514350D02*
X712390Y514350D01*
X951310Y152400D02*
X966390Y152400D01*
X966390Y177800D02*
X951310Y177800D01*
X951310Y203200D02*
X966390Y203200D01*
X890190Y152400D02*
X875110Y152400D01*
X875110Y177800D02*
X890190Y177800D01*
X890190Y203200D02*
X875110Y203200D01*
X813990Y152400D02*
X798910Y152400D01*
X798910Y177800D02*
X813990Y177800D01*
X813990Y203200D02*
X798910Y203200D01*
X737790Y152400D02*
X722710Y152400D01*
X722710Y177800D02*
X737790Y177800D01*
X737790Y203200D02*
X722710Y203200D01*
X661590Y152400D02*
X646510Y152400D01*
X646510Y177800D02*
X661590Y177800D01*
X661590Y203200D02*
X646510Y203200D01*
X585390Y152400D02*
X570310Y152400D01*
X570310Y177800D02*
X585390Y177800D01*
X585390Y203200D02*
X570310Y203200D01*
X344090Y463550D02*
X329010Y463550D01*
X329010Y488950D02*
X344090Y488950D01*
X344090Y514350D02*
X329010Y514350D01*
X405210Y463550D02*
X420290Y463550D01*
X420290Y488950D02*
X405210Y488950D01*
X405210Y514350D02*
X420290Y514350D01*
X481410Y463550D02*
X496490Y463550D01*
X496490Y488950D02*
X481410Y488950D01*
X481410Y514350D02*
X496490Y514350D01*
X557610Y463550D02*
X572690Y463550D01*
X572690Y488950D02*
X557610Y488950D01*
X557610Y514350D02*
X572690Y514350D01*
D10*
X171450Y179070D02*
X171450Y163830D01*
X196850Y163830D02*
X196850Y179070D01*
X222250Y179070D02*
X222250Y163830D01*
D13*
X221850Y85154D02*
X221850Y67247D01*
X171850Y67247D02*
X171850Y85154D01*
D14*
X336550Y39370D03*
D15*
X336550Y74930D03*
D16*
X323850Y146050D03*
X349250Y146050D03*
X374650Y146050D03*
X400050Y146050D03*
X425450Y146050D03*
X450850Y146050D03*
X323850Y171450D03*
X349250Y171450D03*
X374650Y171450D03*
X400050Y171450D03*
X425450Y171450D03*
X450850Y171450D03*
D17*
X1162050Y31750D03*
D18*
X1162050Y57150D03*
X1162050Y82550D03*
X1136650Y31750D03*
X1136650Y57150D03*
X1136650Y82550D03*
D10*
X38608Y216281D02*
X23368Y216281D01*
X23368Y171069D02*
X38608Y171069D01*
X88392Y216281D02*
X103632Y216281D01*
X103632Y171069D02*
X88392Y171069D01*
X38608Y286131D02*
X23368Y286131D01*
X23368Y240919D02*
X38608Y240919D01*
X88392Y286131D02*
X103632Y286131D01*
X103632Y240919D02*
X88392Y240919D01*
X38608Y76581D02*
X23368Y76581D01*
X23368Y31369D02*
X38608Y31369D01*
X88392Y76581D02*
X103632Y76581D01*
X103632Y31369D02*
X88392Y31369D01*
X38608Y146431D02*
X23368Y146431D01*
X23368Y101219D02*
X38608Y101219D01*
X88392Y146431D02*
X103632Y146431D01*
X103632Y101219D02*
X88392Y101219D01*
X225806Y609092D02*
X225806Y624332D01*
X180594Y624332D02*
X180594Y609092D01*
X225806Y559308D02*
X225806Y544068D01*
X180594Y544068D02*
X180594Y559308D01*
D19*
X101600Y615950D03*
X76200Y615950D03*
X101600Y565150D03*
X76200Y565150D03*
X101600Y514350D03*
X76200Y514350D03*
X101600Y463550D03*
X76200Y463550D03*
X101600Y412750D03*
X76200Y412750D03*
X101600Y361950D03*
X76200Y361950D03*
D20*
X171450Y285750D03*
X171450Y311150D03*
X222250Y285750D03*
X222250Y311150D03*
D21*
X44704Y361950D02*
X31496Y361950D01*
X31496Y387350D02*
X44704Y387350D01*
X44704Y412750D02*
X31496Y412750D01*
X31496Y438150D02*
X44704Y438150D01*
X44704Y463550D02*
X31496Y463550D01*
X31496Y488950D02*
X44704Y488950D01*
X44704Y514350D02*
X31496Y514350D01*
X31496Y539750D02*
X44704Y539750D01*
X44704Y565150D02*
X31496Y565150D01*
D22*
X323850Y400050D03*
X336550Y419100D03*
X349250Y400050D03*
X400050Y400050D03*
X412750Y419100D03*
X425450Y400050D03*
X476250Y400050D03*
X488950Y419100D03*
X501650Y400050D03*
X552450Y400050D03*
X565150Y419100D03*
X577850Y400050D03*
D23*
X322550Y361950D03*
X350550Y361950D03*
X398750Y361950D03*
X426750Y361950D03*
X474950Y361950D03*
X502950Y361950D03*
X636300Y374650D03*
X608300Y374650D03*
X322550Y330200D03*
X350550Y330200D03*
X398750Y330200D03*
X426750Y330200D03*
X474950Y330200D03*
X502950Y330200D03*
X659100Y374650D03*
X687100Y374650D03*
D24*
X527050Y406400D03*
X527050Y393700D03*
X527050Y381000D03*
D25*
X527050Y419100D03*
D24*
X1047750Y450850D03*
X1047750Y425450D03*
X1047750Y323850D03*
X1047750Y298450D03*
M02*
